<?xml version="1.0" standalone="no"?>
<!DOCTYPE svg PUBLIC "-//W3C//DTD SVG 20010904//EN"
 "http://www.w3.org/TR/2001/REC-SVG-20010904/DTD/svg10.dtd">
<svg version="1.0" xmlns="http://www.w3.org/2000/svg"
 width="1100.000000pt" height="304.000000pt" viewBox="0 0 1100.000000 304.000000"
 preserveAspectRatio="xMidYMid meet">

<g transform="translate(0.000000,304.000000) scale(0.100000,-0.100000)"
fill="#000000" stroke="none">
<path d="M5770 2435 l-85 -85 -266 0 c-287 0 -294 -1 -287 -52 l3 -23 223 -3
c142 -1 222 -6 222 -13 0 -5 -95 -103 -211 -218 -170 -168 -210 -212 -207
-231 2 -13 13 -27 27 -32 22 -8 43 10 242 209 146 145 220 212 224 202 2 -8 6
-108 7 -223 3 -186 5 -210 21 -220 12 -8 22 -8 35 0 15 10 17 38 22 281 l5
270 83 79 c85 83 100 114 63 134 -11 5 -23 10 -28 10 -4 0 -46 -38 -93 -85z"/>
<path d="M4657 543 c-15 -15 -7 -43 13 -43 22 0 26 -22 11 -62 -4 -13 -11 -42
-15 -65 -6 -43 -6 -43 24 -43 19 0 30 5 30 14 0 7 7 46 16 85 14 63 19 71 39
71 23 0 40 24 29 41 -6 10 -137 12 -147 2z"/>
<path d="M4897 543 c-6 -10 -47 -189 -47 -206 0 -4 12 -7 27 -5 21 2 29 10 35
36 11 42 24 41 38 -3 10 -29 16 -35 41 -35 34 0 34 0 14 46 -14 34 -13 38 5
61 23 30 26 62 7 87 -15 21 -110 35 -120 19z m73 -62 c0 -20 -26 -36 -35 -21
-8 13 6 40 21 40 8 0 14 -9 14 -19z"/>
<path d="M5175 519 c-9 -17 -34 -64 -56 -105 -21 -41 -39 -77 -39 -79 0 -15
57 -2 68 15 8 13 23 20 43 20 22 0 32 -5 36 -20 4 -13 14 -20 30 -20 l25 0 -7
88 c-10 128 -11 132 -51 132 -27 0 -36 -6 -49 -31z m45 -68 c0 -32 -16 -49
-31 -34 -11 11 8 63 23 63 4 0 8 -13 8 -29z"/>
<path d="M5380 502 c0 -27 3 -77 6 -111 l7 -61 34 0 c32 0 35 3 83 101 28 56
50 106 50 110 0 5 -12 9 -26 9 -22 0 -30 -10 -55 -66 -17 -36 -33 -64 -36 -60
-3 3 -8 31 -12 63 -5 50 -9 58 -28 61 -21 3 -23 -1 -23 -46z"/>
<path d="M5645 538 c-2 -7 -13 -55 -24 -106 -22 -107 -23 -105 60 -100 41 2
55 7 57 20 2 12 -5 17 -30 20 -25 2 -33 8 -33 23 0 15 8 21 35 25 45 6 54 37
13 42 -16 2 -29 10 -31 20 -2 13 5 17 35 20 31 2 39 7 41 26 3 21 0 22 -58 22
-40 0 -62 -4 -65 -12z"/>
<path d="M5856 483 c-8 -38 -18 -87 -22 -111 l-7 -43 64 3 c51 2 64 6 67 21 3
13 -3 17 -29 17 l-32 0 7 48 c3 26 9 66 12 90 6 40 5 42 -19 42 -23 0 -27 -6
-41 -67z"/>
<path d="M6219 529 c-15 -15 -19 -28 -14 -48 4 -21 0 -32 -20 -51 -25 -23 -32
-54 -17 -77 14 -22 58 -31 125 -26 55 5 65 8 56 19 -8 10 -6 22 10 47 12 19
21 39 21 46 0 17 -50 13 -56 -4 -6 -16 -34 -21 -34 -7 0 5 9 17 20 27 29 26
34 54 14 76 -23 26 -78 25 -105 -2z m61 -34 c0 -8 -4 -15 -9 -15 -13 0 -22 16
-14 24 11 11 23 6 23 -9z m-26 -101 c4 -9 4 -19 2 -22 -10 -9 -36 8 -36 23 0
20 26 19 34 -1z"/>
<path d="M6600 535 c-14 -17 -5 -35 17 -35 16 0 16 -9 -3 -127 -6 -41 -6 -43
19 -43 19 0 28 6 32 23 3 12 11 49 18 82 10 50 16 60 37 65 16 4 26 14 28 28
3 21 0 22 -66 22 -49 0 -73 -4 -82 -15z"/>
<path d="M6875 541 c-32 -13 -53 -43 -66 -92 -15 -55 1 -96 43 -117 42 -20
103 0 128 41 28 44 27 130 0 157 -21 21 -68 26 -105 11z m71 -65 c7 -28 -19
-94 -41 -102 -20 -8 -45 13 -45 38 0 10 7 34 14 53 18 43 62 50 72 11z"/>
<path d="M7115 533 c-16 -42 -31 -151 -24 -171 17 -46 99 -50 137 -8 18 19 52
139 52 180 0 19 -33 21 -48 4 -5 -7 -15 -40 -22 -73 -14 -71 -26 -95 -44 -95
-23 0 -25 25 -10 91 8 35 12 69 10 76 -8 19 -43 16 -51 -4z"/>
<path d="M7387 544 c-3 -5 -12 -45 -21 -89 -9 -44 -19 -90 -21 -103 -5 -21 -2
-23 22 -20 21 2 29 10 37 36 11 39 27 37 40 -6 7 -26 14 -32 37 -32 33 0 34 5
14 53 -13 32 -13 36 5 52 24 22 27 77 5 95 -19 16 -110 26 -118 14z m71 -66
c-5 -32 -28 -35 -28 -4 0 17 5 26 16 26 10 0 14 -7 12 -22z"/>
<path d="M7635 525 c-14 -13 -25 -29 -25 -35 0 -17 20 -53 42 -73 27 -27 17
-42 -26 -40 -30 2 -36 -1 -36 -18 0 -24 41 -42 78 -33 68 16 81 71 32 128 -33
37 -27 53 18 47 13 -1 25 4 28 14 16 41 -73 49 -111 10z"/>
</g>
</svg>
